<svg xmlns="http://www.w3.org/2000/svg" width="512" height="320" version="1.1" id="svg1" inkscape:version="1.3.2 (091e20e, 2023-11-25, custom)" sodipodi:docname="cosi-logo-animated.svg"  xmlns:inkscape="http://www.inkscape.org/namespaces/inkscape" xmlns:sodipodi="http://sodipodi.sourceforge.net/DTD/sodipodi-0.dtd" xmlns:svg="http://www.w3.org/2000/svg" viewBox="0 96 512 320" data-app="Xyris">
    <defs id="defs1">
    </defs>
    <sodipodi:namedview id="namedview1" pagecolor="#ffffff" bordercolor="#000000" borderopacity="0.25" inkscape:showpageshadow="2" inkscape:pageopacity="0.0" inkscape:pagecheckerboard="0" inkscape:deskcolor="#d1d1d1" inkscape:document-units="px" inkscape:zoom="1.1582031" inkscape:cx="375.5818" inkscape:cy="149.36931" inkscape:window-width="2560" inkscape:window-height="1476" inkscape:window-x="-12" inkscape:window-y="-12" inkscape:window-maximized="1" inkscape:current-layer="layer1">
    </sodipodi:namedview>
    <g inkscape:label="Layer 1" inkscape:groupmode="layer" id="layer1" transform-origin="center" style="transform-box: fill-box;">
        <g transform-origin="center" style="transform-box: fill-box;">
            <rect fill="rgb(25, 174, 255)" stroke="#000000" stroke-width="0" x="418.778" y="199.983" width="22.5506" height="112.188" transform="">
            </rect>
            <animateTransform attributeName="transform" type="translate" begin="0" dur="8" keyTimes="0; 0.0625; 0.5; 0.5625; 1" values="0, 0;-174.164, 0;-174.164, 0;0;0" fill="freeze" additive="sum" calcMode="spline" keySplines="0.645 0.045 0.355 1; 0 0 1 1; 0.645 0.045 0.355 1; 0 0 1 1" repeatCount="indefinite">
            </animateTransform>
            <animateTransform attributeName="transform" type="rotate" begin="0" dur="8" keyTimes="0; 0.0625; 0.5; 0.5625; 1" values="0;90;90;0;0" fill="freeze" additive="sum" calcMode="spline" keySplines="0.645 0.045 0.355 1; 0 0 1 1; 0.645 0.045 0.355 1; 0 0 1 1" repeatCount="indefinite">
            </animateTransform>
            <animateTransform attributeName="transform" type="scale" begin="0" dur="8" keyTimes="0; 0.0625; 0.5; 0.5625; 1" values="1, 1;2;2, 2;1;1" fill="freeze" additive="sum" calcMode="spline" keySplines="0.645 0.045 0.355 1; 0 0 1 1; 0.645 0.045 0.355 1; 0 0 1 1" repeatCount="indefinite">
            </animateTransform>
        </g>
        <g transform-origin="center" style="transform-box: fill-box;">
            <path font-size="10.5833px" line-height="1" font-family="Righteous" letter-spacing="-0.529167px" stroke-width="4.18772" stroke-linejoin="round" d="m 277.70264,256.03746 q 0,7.96873 -2.10935,15.39057 -2.03126,7.34373 -5.78124,13.82808 -3.74999,6.40624 -9.06248,11.71872 -5.31247,5.31248 -11.71871,9.1406 -6.40622,3.74999 -13.82808,5.78123 -7.42185,2.10937 -15.39057,2.10937 -7.96873,0 -15.39057,-2.10937 -7.34373,-2.03124 -13.82808,-5.78123 -6.40624,-3.82812 -11.71871,-9.1406 -5.31249,-5.31248 -9.14061,-11.71872 -3.74999,-6.48435 -5.85936,-13.82808 -2.03124,-7.42184 -2.03124,-15.39057 0,-7.96872 2.03124,-15.39057 2.10937,-7.42185 5.85936,-13.82808 3.82812,-6.40624 9.14061,-11.71871 5.31247,-5.31249 11.71871,-9.06247 6.48435,-3.74999 13.82808,-5.78125 7.42184,-2.10935 15.39057,-2.10935 7.96872,0 15.39057,2.10935 7.42186,2.03126 13.82808,5.78125 6.40624,3.74998 11.71871,9.06247 5.31249,5.31247 9.06248,11.71871 3.74998,6.40623 5.78124,13.82808 2.10935,7.42185 2.10935,15.39057 z m -22.26554,0 q 0,-7.34372 -2.8125,-13.82808 -2.81248,-6.56248 -7.65622,-11.32809 -4.76561,-4.84374 -11.32809,-7.65622 -6.48435,-2.8125 -13.82808,-2.8125 -7.42186,0 -13.90621,2.8125 -6.48436,2.81248 -11.32808,7.65622 -4.84374,4.76561 -7.65623,11.32809 -2.81249,6.48436 -2.81249,13.82808 0,7.34373 2.81249,13.82809 2.81249,6.40622 7.65623,11.24996 4.84372,4.84373 11.32808,7.65623 6.48435,2.81248 13.90621,2.81248 7.34373,0 13.82808,-2.81248 6.56248,-2.8125 11.32809,-7.65623 4.84374,-4.84374 7.65622,-11.24996 2.8125,-6.48436 2.8125,-13.82809 z" id="path2" fill="rgb(25, 174, 255)">
            </path>
            <path font-size="10.5833px" line-height="1" font-family="Righteous" letter-spacing="-0.529167px" stroke-width="4.18772" stroke-linejoin="round" d="m 166.17179,300.09983 q -7.81248,6.71871 -17.49993,10.31246 -9.68748,3.59374 -20.07808,3.59374 -7.96872,0 -15.39057,-2.10937 -7.34373,-2.03124 -13.828079,-5.78123 -6.406224,-3.82812 -11.718713,-9.1406 -5.312488,-5.31248 -9.14059,-11.71872 -3.749987,-6.48435 -5.859357,-13.82808 -2.031254,-7.42184 -2.031254,-15.39057 0,-7.96872 2.031254,-15.39057 2.10937,-7.42185 5.859357,-13.82808 3.828102,-6.48435 9.14059,-11.79684 5.312489,-5.31249 11.718713,-9.06247 6.484349,-3.82811 13.828079,-5.85936 7.42185,-2.10937 15.39057,-2.10937 10.3906,0 20.07808,3.59374 9.68745,3.51561 17.49993,10.31247 l -11.87495,19.53119 q -4.92187,-5.31248 -11.6406,-8.12498 -6.71873,-2.89062 -14.06246,-2.89062 -7.42184,0 -13.9062,2.8125 -6.48435,2.81248 -11.32809,7.65622 -4.843733,4.76561 -7.656216,11.32809 -2.812497,6.48436 -2.812497,13.82808 0,7.34373 2.812497,13.82809 2.812483,6.40622 7.656216,11.24996 4.84374,4.84373 11.32809,7.65623 6.48436,2.81248 13.9062,2.81248 7.34373,0 14.06246,-2.81248 6.71873,-2.89063 11.6406,-8.2031 z" id="text1" fill="rgb(25, 174, 255)">
            </path>
            <animateTransform attributeName="transform" type="translate" begin="0" dur="8" keyTimes="0; 0.0625; 0.5; 0.5625; 1" values="0, 0;81.836, 0;81.836, 0;0;0" fill="freeze" additive="sum" calcMode="spline" keySplines="0.645 0.045 0.355 1; 0 0 1 1; 0.645 0.045 0.355 1; 0 0 1 1" repeatCount="indefinite">
            </animateTransform>
            <animateTransform attributeName="transform" type="scale" begin="0" dur="8" keyTimes="0; 0.0625; 0.5; 0.5625; 1" values="1, 1;2;2, 2;1;1" fill="freeze" additive="sum" calcMode="spline" keySplines="0.645 0.045 0.355 1; 0 0 1 1; 0.645 0.045 0.355 1; 0 0 1 1" repeatCount="indefinite">
            </animateTransform>
        </g>
        <g transform-origin="center" style="transform-box: fill-box;">
            <path id="path2-8-1" font-size="10.5833px" line-height="1" font-family="Righteous" letter-spacing="-0.529167px" stroke-width="4.18772" stroke-linejoin="round" d="m 400.01368,301.64769 c 0,-5.31249 -0.70315,-10.44275 -2.10937,-15.39063 -1.35413,-4.89582 -3.28127,-9.50523 -5.78126,-13.82813 -2.49999,-4.27082 -5.52084,-8.1771 -9.0625,-11.71874 -3.54165,-3.54166 -7.44793,-6.58855 -11.71875,-9.14064 -4.2708,-2.49997 -8.88022,-4.45313 -13.82812,-5.85937 -4.94789,-1.35413 -10.07814,-2.03124 -15.39063,-2.03124 -5.31248,0 -10.44273,0.67714 -15.39062,2.03124 -4.89581,1.40629 -9.50522,3.3594 -13.82812,5.85937 -4.27082,2.55209 -8.17712,5.59898 -11.71876,9.14064 l 15.85938,15.70312 c 3.22915,-3.22915 6.97919,-5.78126 11.25001,-7.65625 4.32288,-1.87499 8.9323,-2.8125 13.82811,-2.8125 4.89582,0 9.50524,0.93748 13.82812,2.8125 4.37499,1.87499 8.15107,4.4271 11.32814,7.65625 3.22915,3.22914 5.78126,7.00523 7.65625,11.32812 1.87499,4.3229 2.8125,8.95836 2.8125,13.90626 0,4.8958 -0.93748,9.50522 -2.8125,13.82812 -1.87499,4.37499 -4.4271,8.15105 -7.65625,11.32812 -3.17707,3.22916 -6.95315,5.78126 -11.32814,7.65625 -4.32288,1.875 -8.9323,2.8125 -13.82812,2.8125 -4.89581,0 -9.50523,-0.93747 -13.82811,-2.8125 -4.27082,-1.87499 -8.02086,-4.42709 -11.25001,-7.65625 -3.22915,-3.17707 -5.78126,-6.95313 -7.65625,-11.32812 -1.87499,-4.3229 -2.8125,-8.93232 -2.8125,-13.82812 H 284.1543 c 0,5.31247 0.70315,10.44273 2.10939,15.39063 1.35413,4.9479 3.28125,9.5573 5.78124,13.82811 2.55207,4.27082 5.59898,8.17711 9.14062,11.71876 3.54164,3.54165 7.44794,6.56251 11.71876,9.06249 4.3229,2.49999 8.93231,4.42708 13.82812,5.78125 4.94789,1.40629 10.07814,2.10937 15.39062,2.10937 5.31249,0 10.44274,-0.70314 15.39063,-2.10937 4.9479,-1.35413 9.55732,-3.28126 13.82812,-5.78125 4.27082,-2.49998 8.1771,-5.52084 11.71875,-9.06249 3.54166,-3.54165 6.56251,-7.44794 9.0625,-11.71876 2.49999,-4.27081 4.42708,-8.88021 5.78126,-13.82811 1.40628,-4.9479 2.10937,-10.07816 2.10937,-15.39063 z m -82.96875,-25.23438 c -0.80731,0.80731 -1.5664,1.64778 -2.28906,2.52344 0.72264,-0.87564 1.48172,-1.71615 2.28906,-2.52344 z m -2.28906,2.52344 c -0.72265,0.87564 -1.40886,1.79036 -2.04687,2.73437 0.63798,-0.94398 1.32419,-1.85873 2.04687,-2.73437 z m -2.04687,2.73437 c -0.63799,0.94397 -1.2279,1.91732 -1.78127,2.92969 0.55348,-1.01231 1.14324,-1.98569 1.78127,-2.92969 z m -1.78127,2.92969 c -0.55332,1.01231 -1.07036,2.0599 -1.53905,3.14062 0.46881,-1.08079 0.9857,-2.12825 1.53905,-3.14062 z" fill="rgb(0, 92, 148)">
            </path>
            <path font-size="10.5833px" line-height="1" font-family="Righteous" letter-spacing="-0.529167px" stroke-width="4.18772" stroke-linejoin="round" d="m 298.06372,248.00828 c -4.47915,-5.20832 -7.91663,-11.04163 -10.31246,-17.49993 -2.39582,-6.45832 -3.59374,-13.15101 -3.59374,-20.07808 0,-5.31249 0.70315,-10.44267 2.10937,-15.39057 1.35413,-4.89581 3.28124,-9.50518 5.78123,-13.82808 2.55207,-4.27082 5.59894,-8.17705 9.1406,-11.71871 3.54165,-3.54166 7.4479,-6.58852 11.71872,-9.14059 4.3229,-2.49999 8.93226,-4.45312 13.82808,-5.85936 4.9479,-1.35413 10.07808,-2.03125 15.39057,-2.03125 5.31249,0 10.44266,0.67714 15.39057,2.03125 4.9479,1.40629 9.55726,3.35937 13.82808,5.85936 4.3229,2.55207 8.25518,5.59893 11.79684,9.14059 3.54166,3.54166 6.56248,7.44789 9.06247,11.71871 2.55208,4.3229 4.50519,8.93227 5.85936,13.82808 1.40629,4.9479 2.10937,10.07808 2.10937,15.39057 h -22.4218 c 0,-4.9479 -0.93748,-9.58329 -2.8125,-13.90619 -1.875,-4.32291 -4.42707,-8.09894 -7.65622,-11.3281 -3.17707,-3.22915 -6.95311,-5.78122 -11.32809,-7.65621 -4.3229,-1.875 -8.93226,-2.8125 -13.82808,-2.8125 -4.89582,0 -9.50518,0.93747 -13.82809,2.8125 -4.27082,1.87499 -8.0208,4.42706 -11.24996,7.65621 -3.22915,3.22916 -5.78124,7.00519 -7.65623,11.3281 -1.87499,4.3229 -2.81248,8.95829 -2.81248,13.90619 0,4.89582 0.93747,9.58331 2.81248,14.06246 1.92709,4.47915 4.66146,8.35935 8.2031,11.6406 z" id="text1-0-1-7-1" sodipodi:nodetypes="cssccsccsccsccccsccscsssccc" fill="rgb(0, 92, 148)">
            </path>
            <animateTransform attributeName="transform" type="translate" begin="0" dur="8" keyTimes="0; 0.0625; 0.5; 0.5625; 1" values="0, 0.0000013092966355543467;-86.163, 0;-86.163, 0;0;0" fill="freeze" additive="sum" calcMode="spline" keySplines="0.645 0.045 0.355 1; 0 0 1 1; 0.645 0.045 0.355 1; 0 0 1 1" repeatCount="indefinite">
            </animateTransform>
            <animateTransform attributeName="transform" type="rotate" begin="0" dur="8" keyTimes="0; 0.0625; 0.5; 0.5625; 1" values="0;-90;-90;0;0" fill="freeze" additive="sum" calcMode="spline" keySplines="0.645 0.045 0.355 1; 0 0 1 1; 0.645 0.045 0.355 1; 0 0 1 1" repeatCount="indefinite">
            </animateTransform>
            <animateTransform attributeName="transform" type="scale" begin="0" dur="8" keyTimes="0; 0.0625; 0.5; 0.5625; 1" values="1, 1;2;2, 2;1;1" fill="freeze" additive="sum" calcMode="spline" keySplines="0.645 0.045 0.355 1; 0 0 1 1; 0.645 0.045 0.355 1; 0 0 1 1" repeatCount="indefinite">
            </animateTransform>
        </g>
    </g>
    <text x="143" y="296" font-family="Arial" font-size="12" fill="#000000" stroke="none">
    </text>
</svg>
